<?xml version="1.0" encoding="utf-8"?>
<!-- Generator: Adobe Illustrator 15.0.0, SVG Export Plug-In . SVG Version: 6.00 Build 0)  -->
<!DOCTYPE svg PUBLIC "-//W3C//DTD SVG 1.1//EN" "http://www.w3.org/Graphics/SVG/1.1/DTD/svg11.dtd">
<svg version="1.1" id="レイヤー_1" xmlns="http://www.w3.org/2000/svg" xmlns:xlink="http://www.w3.org/1999/xlink" x="0px"
	 y="0px" width="340.16px" height="340.158px" viewBox="0 0 340.16 340.158" enable-background="new 0 0 340.16 340.158"
	 xml:space="preserve">
<path fill="#142951" d="M340.332,326.309c0,7.877-6.447,14.324-14.324,14.324H14.5c-7.879,0-14.325-6.447-14.325-14.324V14.799
	C0.174,6.92,6.621,0.475,14.5,0.475h311.508c7.877,0,14.324,6.445,14.324,14.324V326.309z"/>
<g>
	<path fill="#FFFFFF" d="M115.144,220.647h-3.043v-2.24h8.81v2.24h-3.058v9.021h-2.709V220.647z"/>
	<path fill="#FFFFFF" d="M122.653,218.407h7.145v2.24h-4.436v2.089h3.77v2.271h-3.77v2.392h4.602v2.271h-7.311V218.407z"/>
	<path fill="#FFFFFF" d="M134.172,223.872l-2.921-5.465h3.012l0.908,2.014c0.242,0.529,0.5,1.119,0.817,1.846h0.061
		c0.258-0.727,0.5-1.316,0.727-1.846l0.818-2.014h2.86l-2.906,5.586l3.103,5.676h-3.012l-1.045-2.195
		c-0.271-0.59-0.529-1.18-0.832-1.877h-0.061c-0.272,0.697-0.515,1.287-0.772,1.877l-0.969,2.195h-2.891L134.172,223.872z"/>
	<path fill="#FFFFFF" d="M144.315,220.647h-3.043v-2.24h8.811v2.24h-3.059v9.021h-2.709V220.647z"/>
	<path fill="#FFFFFF" d="M154.776,224.099c0-3.754,2.513-5.903,5.373-5.903c1.469,0,2.649,0.681,3.422,1.468l-1.424,1.727
		c-0.56-0.516-1.15-0.879-1.952-0.879c-1.453,0-2.649,1.303-2.649,3.497c0,2.24,1.029,3.542,2.619,3.542
		c0.893,0,1.619-0.454,2.149-1.029l1.423,1.695c-0.953,1.105-2.21,1.665-3.678,1.665
		C157.198,229.881,154.776,227.913,154.776,224.099z"/>
	<path fill="#FFFFFF" d="M165.387,218.407h2.709v4.283h3.708v-4.283h2.68v11.262h-2.68v-4.632h-3.708v4.632h-2.709V218.407z"/>
	<path fill="#FFFFFF" d="M182.416,227.081h-3.33l-0.65,2.588h-2.754l3.496-11.262h3.238l3.498,11.262h-2.846L182.416,227.081z
		 M181.902,224.991l-0.242-0.953c-0.303-1.12-0.59-2.467-0.893-3.617h-0.061c-0.273,1.18-0.576,2.497-0.863,3.617l-0.242,0.953
		H181.902z"/>
	<path fill="#FFFFFF" d="M187.096,218.407h2.754l2.801,5.389l1.105,2.498h0.074c-0.15-1.196-0.363-2.816-0.363-4.163v-3.724h2.574
		v11.262h-2.756l-2.785-5.434l-1.104-2.468h-0.076c0.121,1.257,0.348,2.8,0.348,4.163v3.738h-2.572V218.407z"/>
	<path fill="#FFFFFF" d="M198.146,224.099c0-3.754,2.527-5.903,5.539-5.903c1.65,0,2.83,0.696,3.604,1.468l-1.439,1.727
		c-0.545-0.5-1.135-0.879-2.072-0.879c-1.666,0-2.861,1.303-2.861,3.497c0,2.24,0.998,3.542,3.088,3.542
		c0.408,0,0.832-0.105,1.074-0.287v-1.816h-1.785v-2.211h4.191v5.268c-0.787,0.758-2.18,1.378-3.754,1.378
		C200.598,229.881,198.146,227.913,198.146,224.099z"/>
	<path fill="#FFFFFF" d="M209.756,218.407h7.145v2.24h-4.436v2.089h3.77v2.271h-3.77v2.392h4.602v2.271h-7.311V218.407z"/>
	<path fill="#FFFFFF" d="M225.379,229.669l-2.074-3.966h-1.303v3.966h-2.709v-11.262h4.133c2.406,0,4.404,0.817,4.404,3.542
		c0,1.649-0.771,2.71-1.938,3.255l2.514,4.465H225.379z M222.002,223.569h1.211c1.287,0,1.969-0.561,1.969-1.62
		s-0.682-1.407-1.969-1.407h-1.211V223.569z"/>
</g>
<g>
	<path fill="#FFFFFF" d="M116.9,239.323h7.189v2.24h-4.48v2.468h3.845v2.255h-3.845v4.299H116.9V239.323z"/>
	<path fill="#FFFFFF" d="M125.529,244.894c0-3.693,2.089-5.782,5.161-5.782c3.073,0,5.162,2.104,5.162,5.782
		c0,3.693-2.089,5.903-5.162,5.903C127.618,250.797,125.529,248.587,125.529,244.894z M133.097,244.894
		c0-2.18-0.924-3.466-2.407-3.466s-2.392,1.286-2.392,3.466c0,2.194,0.908,3.572,2.392,3.572S133.097,247.088,133.097,244.894z"/>
	<path fill="#FFFFFF" d="M144.027,250.585l-2.074-3.966h-1.302v3.966h-2.709v-11.262h4.132c2.407,0,4.405,0.817,4.405,3.542
		c0,1.65-0.772,2.709-1.938,3.254l2.513,4.466H144.027z M140.651,244.484h1.211c1.287,0,1.968-0.56,1.968-1.619
		s-0.681-1.408-1.968-1.408h-1.211V244.484z"/>
	<path fill="#FFFFFF" d="M151.036,239.323h2.771l0.711,5.132l0.454,3.572h0.061c0.212-1.196,0.439-2.407,0.666-3.572l1.15-5.132
		h2.271l1.181,5.132c0.228,1.15,0.424,2.361,0.651,3.572h0.075c0.137-1.211,0.288-2.407,0.424-3.572l0.727-5.132h2.573
		l-1.952,11.262h-3.406l-1.014-4.904c-0.182-0.862-0.333-1.771-0.439-2.618h-0.075c-0.137,0.848-0.272,1.756-0.439,2.618
		l-0.983,4.904h-3.346L151.036,239.323z"/>
	<path fill="#FFFFFF" d="M166.28,239.323h7.144v2.24h-4.434v2.089h3.768v2.271h-3.768v2.392h4.602v2.271h-7.312V239.323z"/>
	<path fill="#FFFFFF" d="M175.816,239.323h2.711v8.991h4.373v2.271h-7.084V239.323z"/>
	<path fill="#FFFFFF" d="M184.34,245.015c0-3.754,2.512-5.903,5.373-5.903c1.469,0,2.648,0.682,3.422,1.469l-1.424,1.725
		c-0.561-0.514-1.15-0.877-1.953-0.877c-1.453,0-2.648,1.301-2.648,3.496c0,2.24,1.029,3.542,2.619,3.542
		c0.893,0,1.619-0.454,2.148-1.029l1.424,1.695c-0.953,1.104-2.211,1.665-3.678,1.665
		C186.762,250.797,184.34,248.829,184.34,245.015z"/>
	<path fill="#FFFFFF" d="M200.264,247.996h-3.33l-0.65,2.589h-2.754l3.496-11.262h3.238l3.498,11.262h-2.846L200.264,247.996z
		 M199.75,245.908l-0.242-0.954c-0.303-1.12-0.59-2.468-0.893-3.618h-0.061c-0.273,1.182-0.576,2.498-0.863,3.618l-0.242,0.954
		H199.75z"/>
	<path fill="#FFFFFF" d="M211.027,250.585l-2.074-3.966h-1.301v3.966h-2.709v-11.262h4.131c2.408,0,4.406,0.817,4.406,3.542
		c0,1.65-0.773,2.709-1.938,3.254l2.512,4.466H211.027z M207.652,244.484h1.211c1.287,0,1.967-0.56,1.967-1.619
		s-0.68-1.408-1.967-1.408h-1.211V244.484z"/>
	<path fill="#FFFFFF" d="M217.84,241.563h-3.043v-2.24h8.811v2.24h-3.059v9.021h-2.709V241.563z"/>
</g>
<g>
	<path fill="#FFFFFF" d="M203.889,93.187h-67.27c-5.503,0-9.964,4.461-9.964,9.965s4.461,9.965,9.964,9.965h67.27
		c5.502,0,9.963-4.461,9.963-9.965S209.391,93.187,203.889,93.187z"/>
	<path fill="#FFFFFF" d="M160.289,130.178v42.151c0,5.505,4.461,9.965,9.965,9.965c5.503,0,9.964-4.46,9.964-9.965v-42.151
		c0-5.504-4.461-9.965-9.964-9.965C164.75,120.213,160.289,124.674,160.289,130.178z"/>
	<circle fill="#329ABE" cx="203.887" cy="103.151" r="7.287"/>
	<circle fill="#75A048" cx="170.253" cy="130.178" r="7.287"/>
	<circle fill="#E9953C" cx="170.254" cy="172.146" r="7.287"/>
	<circle fill="#D2C030" cx="136.62" cy="103.15" r="7.287"/>
</g>
</svg>
